<?xml version="1.0" encoding="UTF-8" standalone="no"?><!DOCTYPE svg PUBLIC "-//W3C//DTD SVG 1.1//EN" "http://www.w3.org/Graphics/SVG/1.1/DTD/svg11.dtd"><svg width="100%" height="100%" viewBox="0 0 3334 3334" version="1.1" xmlns="http://www.w3.org/2000/svg" xmlns:xlink="http://www.w3.org/1999/xlink" xml:space="preserve" xmlns:serif="http://www.serif.com/" style="fill-rule:evenodd;clip-rule:evenodd;stroke-linejoin:round;stroke-miterlimit:2;"><g id="Fundo"><path d="M0,764.213c0,-422.063 342.15,-764.213 764.213,-764.213l1804.787,0c422.125,0 764.325,342.2 764.325,764.321l0,1804.675c0,422.125 -342.2,764.321 -764.321,764.321l-1804.675,0c-422.125,0 -764.321,-342.2 -764.321,-764.321l0,-1804.788l-0.008,0.004Z" style="fill:#242938;"/><path d="M1959.421,1226.038c194.963,-0.037 228.871,-0.233 235.238,0.913c30.833,5.554 24.4,47.787 24.404,68.625c0.067,631.271 -0.008,711.483 -2.379,755.275c-2.267,41.867 6.063,58.7 -35.833,59.496c-153.679,2.917 -158.279,0.521 -170.375,-5.779c-20.217,-10.533 2.467,-87.808 -15.683,-100.196c-12.737,-8.692 -175.646,-3.571 -177.8,-3.108c-25.488,5.496 -18.413,14.983 -52.533,88.654c-11.921,25.738 -50.408,20.458 -65.225,20.558c-133.408,0.921 -134.475,0.546 -145.446,-3.346c-11.929,-4.229 -11.933,-15.583 -11.938,-17.262c-0.004,-5.175 14.254,-35.425 15.667,-38.429c68.533,-145.421 65.704,-146.646 71.675,-159.283c7.238,-15.321 37.242,-83.121 40.446,-90.363c11.9,-26.887 93.304,-210.837 151.038,-335.071c102.717,-221.033 94.575,-233.013 125.242,-239.604c4.417,-0.95 9.092,-0.138 13.508,-1.088l-0.004,0.008Z" style="fill:#0fe34c;"/><path d="M442.125,1919.242c-1.988,-10.175 -15.217,-77.942 -13.779,-128.838c1.188,-42.025 13.896,-133.779 18.979,-156.7c55.217,-249.058 172.158,-332.646 181.621,-341.142c99.521,-89.354 231.342,-82.921 263.3,-77.021c61.6,11.375 76.688,23.413 103.933,40.85c82.783,52.983 102.996,215.463 96.071,248.733c-5.362,25.783 -39.767,20.842 -70.133,20.896c-118.675,0.212 -130.4,1.971 -139.133,-11.604c-8.004,-12.446 -6.892,-90.642 -56.342,-100.804c-90.758,-18.646 -162.446,168.179 -178.633,260.213c-11.308,64.279 -10.746,64.375 -9.196,129.762c3.721,157.192 120.883,142.233 179.338,54.754c29.067,-43.5 21.612,-53.479 12.65,-60.708c-7.796,-6.292 -31.154,-1.862 -43.471,-6.371c-17.5,-6.404 -16.196,-17.583 11.717,-131.546c12.404,-50.642 27.875,-41.033 79.85,-41c253.858,0.171 263.479,-3.729 267.817,16.996c4.171,19.95 -24.454,120.062 -27.383,130.304c-9.175,32.092 -25.396,25.879 -44.558,28.271c-53.696,6.704 -30.246,133.971 -160.058,252.983c-101.892,93.412 -284.258,89.567 -359.196,39.317c-84.867,-56.908 -103.613,-137.283 -113.387,-167.354l-0.004,0.008Z" style="fill:#0fe34c;"/><path d="M2584.679,1225.9c67.379,0.971 129.679,2.958 207.821,44.446c58.017,30.8 126.317,120.379 106.954,285.9c-25.196,215.383 -163.162,296.446 -195.362,316.192c-139.987,85.838 -302.004,48.725 -312.129,54.45c-1.542,0.871 -3.958,15.979 -2.258,19.488c3.633,7.492 75.158,27.004 79.983,51.846c1.733,8.917 -14.113,92.967 -27.683,105.383c-9.071,8.296 -48.075,7.308 -143.792,6.887c-3.004,-0.012 -35.133,-0.154 -37.562,-1.104c-18.767,-7.333 -15.633,-12.204 -12.908,-32.271c5.167,-38.033 9.854,-53.662 82.792,-376.392c29.604,-131 30.812,-130.546 60.733,-261.479c15.079,-65.983 39.333,-193.683 53.062,-205.354c11.15,-9.483 28.829,-7.971 140.35,-7.987l0,-0.004Z" style="fill:#0fe24c;"/><path d="M1171.179,1375.988c16.858,-32.996 14.675,-34.092 31.213,-55.858c96.887,-127.537 274.446,-132.279 380.362,-77.892c24.179,12.417 85.196,61.625 99.204,145.412c4.042,24.179 17.408,90.587 -10.329,99.271c-10.817,3.388 -11.5,3.604 -141.663,2.154c-36.625,-0.408 -43.292,-1.746 -50.075,-37.608c-16.354,-86.442 -105.833,-60.254 -109.796,0.183c-3.167,48.279 36.833,91.846 45.396,102.042c58.292,69.392 235.55,189.921 142.517,419.833c-74.571,184.296 -318.246,168.6 -403.429,112.712c-27.35,-17.946 -27.513,-17.912 -47.479,-43.571c-4.592,-5.9 -32.779,-42.117 -41.017,-83.992c-24.504,-124.513 20.687,-115.813 21.192,-115.875c9.142,-1.121 139.971,-0.721 143.204,-0.579c38.296,1.696 34.671,17.771 37.554,39.45c11.062,83.2 86.117,64.329 96.337,13.592c26.796,-133.029 -204.742,-196.537 -210.825,-404.421c-2.083,-71.129 15.371,-107.508 17.638,-114.863l-0.004,0.008Z" style="fill:#0fe34d;"/><path d="M2555.525,1633.392c34.537,-138.917 32.804,-143.325 28.196,-155.058c-5.571,-14.179 -55.075,-33.4 -65.487,-37.883c-1.992,-0.858 -26.104,-11.242 -9.754,-25.275c4.096,-3.517 22.2,-1.617 24.121,-1.417c51.854,5.438 67.396,2.204 90.879,3.746c103.121,6.771 67.479,171.138 33.258,239.525c-25.887,51.733 -102.4,91.579 -113.054,70.075c-6.637,-13.392 -5.542,-13.846 -2.071,-28.621c7.629,-32.492 7.308,-32.371 13.912,-65.092Z" style="fill:#242938;"/><path d="M2017.425,1647.392c-5.475,144.821 -1.008,156.967 -30.787,161.342c-5.608,0.825 -74.404,1.775 -78.263,1.179c-25.004,-3.871 -16.187,-30.271 -15.267,-33.033c4.271,-12.787 88.562,-211.458 106.012,-272.771c0.667,-2.342 1.75,-6.15 10.296,-28.633c5.292,-13.917 11.75,-14.25 20.146,-1.992c3.725,5.438 2.129,5.783 -0.096,29.896c-4.821,52.292 -7.867,51.792 -9.604,104.583c-0.654,19.821 -1.208,19.558 -2.438,39.429Z" style="fill:#242938;"/><path d="M2790.763,2076.133c-0.5,0.787 -3.242,11.592 -14.463,22.717c-25.804,25.588 -74.221,18.308 -90.917,-20.596c-28.004,-65.275 76.042,-109.888 105.088,-39.654c6.35,15.358 2.271,15.837 0.287,37.533l0.004,0Z" style="fill:#29743b;"/><path d="M2727.858,2078.138c-3.592,-5.004 -2.012,-5.683 -5.517,-10.571c-1.213,-1.688 -4.275,-1.904 -4.867,-3.896c-6.808,-22.971 34.921,-47.042 39.029,-13.3c2.204,18.117 2.192,21.921 -15.617,26.433c-4.229,1.071 -8.796,0.262 -13.025,1.333l-0.004,0Z" style="fill:#27a84a;"/></g></svg>