<?xml version="1.0" encoding="UTF-8" standalone="no"?><!DOCTYPE svg PUBLIC "-//W3C//DTD SVG 1.1//EN" "http://www.w3.org/Graphics/SVG/1.1/DTD/svg11.dtd"><svg width="100%" height="100%" viewBox="0 0 800 800" version="1.1" xmlns="http://www.w3.org/2000/svg" xmlns:xlink="http://www.w3.org/1999/xlink" xml:space="preserve" xmlns:serif="http://www.serif.com/" style="fill-rule:evenodd;clip-rule:evenodd;stroke-linejoin:round;stroke-miterlimit:2;"><g id="Fundo"><path d="M0,183.411c0,-101.295 82.116,-183.411 183.411,-183.411c145.353,-0 310.411,-0 433.149,-0c101.31,-0 183.438,82.128 183.438,183.437l0,433.122c-0,101.31 -82.128,183.437 -183.437,183.437l-433.122,0c-101.31,-0 -183.437,-82.128 -183.437,-183.437c-0,-122.83 -0,-287.995 -0,-433.149Z" style="fill:#0f1310;"/><path d="M470.261,294.249c46.791,-0.009 54.929,-0.056 56.457,0.219c7.4,1.333 5.856,11.469 5.857,16.47c0.016,151.505 -0.002,170.756 -0.571,181.266c-0.544,10.048 1.455,14.088 -8.6,14.279c-36.883,0.7 -37.987,0.125 -40.89,-1.387c-4.852,-2.528 0.592,-21.074 -3.764,-24.047c-3.057,-2.086 -42.155,-0.857 -42.672,-0.746c-6.117,1.319 -4.419,3.596 -12.608,21.277c-2.861,6.177 -12.098,4.91 -15.654,4.934c-32.018,0.221 -32.274,0.131 -34.907,-0.803c-2.863,-1.015 -2.864,-3.74 -2.865,-4.143c-0.001,-1.242 3.421,-8.502 3.76,-9.223c16.448,-34.901 15.769,-35.195 17.202,-38.228c1.737,-3.677 8.938,-19.949 9.707,-21.687c2.856,-6.453 22.393,-50.601 36.249,-80.417c24.652,-53.048 22.698,-55.923 30.058,-57.505c1.06,-0.228 2.182,-0.033 3.242,-0.261Z" style="fill:#0fe34c;"/><path d="M106.11,460.618c-0.477,-2.442 -3.652,-18.706 -3.307,-30.921c0.285,-10.086 3.335,-32.107 4.555,-37.608c13.252,-59.774 41.318,-79.835 43.589,-81.874c23.885,-21.445 55.522,-19.901 63.192,-18.485c14.784,2.73 18.405,5.619 24.944,9.804c19.868,12.716 24.719,51.711 23.057,59.696c-1.287,6.188 -9.544,5.002 -16.832,5.015c-28.482,0.051 -31.296,0.473 -33.392,-2.785c-1.921,-2.987 -1.654,-21.754 -13.522,-24.193c-21.782,-4.475 -38.987,40.363 -42.872,62.451c-2.714,15.427 -2.579,15.45 -2.207,31.143c0.893,37.726 29.012,34.136 43.041,13.141c6.976,-10.44 5.187,-12.835 3.036,-14.57c-1.871,-1.51 -7.477,-0.447 -10.433,-1.529c-4.2,-1.537 -3.887,-4.22 2.812,-31.571c2.977,-12.154 6.69,-9.848 19.164,-9.84c60.926,0.041 63.235,-0.895 64.276,4.079c1.001,4.788 -5.869,28.815 -6.572,31.273c-2.202,7.702 -6.095,6.211 -10.694,6.785c-12.887,1.609 -7.259,32.153 -38.414,60.716c-24.454,22.419 -68.222,21.496 -86.207,9.436c-20.368,-13.658 -24.867,-32.948 -27.213,-40.165Z" style="fill:#0fe34c;"/><path d="M620.323,294.216c16.171,0.233 31.123,0.71 49.877,10.667c13.924,7.392 30.316,28.891 25.669,68.616c-6.047,51.692 -39.159,71.147 -46.887,75.886c-33.597,20.601 -72.481,11.694 -74.911,13.068c-0.37,0.209 -0.95,3.835 -0.542,4.677c0.872,1.798 18.038,6.481 19.196,12.443c0.416,2.14 -3.387,22.312 -6.644,25.292c-2.177,1.991 -11.538,1.754 -34.51,1.653c-0.721,-0.003 -8.432,-0.037 -9.015,-0.265c-4.504,-1.76 -3.752,-2.929 -3.098,-7.745c1.24,-9.128 2.365,-12.879 19.87,-90.334c7.105,-31.44 7.395,-31.331 14.576,-62.755c3.619,-15.836 9.44,-46.484 12.735,-49.285c2.676,-2.276 6.919,-1.913 33.684,-1.917Z" style="fill:#0fe24c;"/><path d="M281.083,330.237c4.046,-7.919 3.522,-8.182 7.491,-13.406c23.253,-30.609 65.867,-31.747 91.287,-18.694c5.803,2.98 20.447,14.79 23.809,34.899c0.97,5.803 4.178,21.741 -2.479,23.825c-2.596,0.813 -2.76,0.865 -33.999,0.517c-8.79,-0.098 -10.39,-0.419 -12.018,-9.026c-3.925,-20.746 -25.4,-14.461 -26.351,0.044c-0.76,11.587 8.84,22.043 10.895,24.49c13.99,16.654 56.532,45.581 34.204,100.76c-17.897,44.231 -76.379,40.464 -96.823,27.051c-6.564,-4.307 -6.603,-4.299 -11.395,-10.457c-1.102,-1.416 -7.867,-10.108 -9.844,-20.158c-5.881,-29.883 4.965,-27.795 5.086,-27.81c2.194,-0.269 33.593,-0.173 34.369,-0.139c9.191,0.407 8.321,4.265 9.013,9.468c2.655,19.968 20.668,15.439 23.121,3.262c6.431,-31.927 -49.138,-47.169 -50.598,-97.061c-0.5,-17.071 3.689,-25.802 4.233,-27.567Z" style="fill:#0fe34d;"/><path d="M613.326,392.014c8.289,-33.34 7.873,-34.398 6.767,-37.214c-1.337,-3.403 -13.218,-8.016 -15.717,-9.092c-0.478,-0.206 -6.265,-2.698 -2.341,-6.066c0.983,-0.844 5.328,-0.388 5.789,-0.34c12.445,1.305 16.175,0.529 21.811,0.899c24.749,1.625 16.195,41.073 7.982,57.486c-6.213,12.416 -24.576,21.979 -27.133,16.818c-1.593,-3.214 -1.33,-3.323 -0.497,-6.869c1.831,-7.798 1.754,-7.769 3.339,-15.622Z" style="fill:#071409;"/><path d="M484.182,395.374c-1.314,34.757 -0.242,37.672 -7.389,38.722c-1.346,0.198 -17.857,0.426 -18.783,0.283c-6.001,-0.929 -3.885,-7.265 -3.664,-7.928c1.025,-3.069 21.255,-50.75 25.443,-65.465c0.16,-0.562 0.42,-1.476 2.471,-6.872c1.27,-3.34 2.82,-3.42 4.835,-0.478c0.894,1.305 0.511,1.388 -0.023,7.175c-1.157,12.55 -1.888,12.43 -2.305,25.1c-0.157,4.757 -0.29,4.694 -0.585,9.463Z" style="fill:#061706;"/><path d="M669.783,498.272c-0.12,0.189 -0.778,2.782 -3.471,5.452c-6.193,6.141 -17.813,4.394 -21.82,-4.943c-6.721,-15.666 18.25,-26.373 25.221,-9.517c1.524,3.686 0.545,3.801 0.069,9.008Z" style="fill:#29743b;"/><path d="M654.686,498.753c-0.862,-1.201 -0.483,-1.364 -1.324,-2.537c-0.291,-0.405 -1.026,-0.457 -1.168,-0.935c-1.634,-5.513 8.381,-11.29 9.367,-3.192c0.529,4.348 0.526,5.261 -3.748,6.344c-1.015,0.257 -2.111,0.063 -3.126,0.32Z" style="fill:#27a84a;"/></g></svg>